<svg width="42" height="42" viewBox="0 0 42 42" fill="none" xmlns="http://www.w3.org/2000/svg">
<path d="M20.125 34.7096C19.7359 34.321 19.2422 34.054 18.704 33.941C18.1659 33.8281 17.6065 33.8741 17.094 34.0734C17.3116 33.527 17.3692 32.9299 17.26 32.352C17.1508 31.7741 16.8794 31.2391 16.4774 30.8098C16.0755 30.3804 15.5596 30.0743 14.9901 29.9272C14.4207 29.7802 13.8211 29.7982 13.2615 29.9793C13.5539 29.4108 13.6611 28.765 13.568 28.1326C13.4749 27.5001 13.1862 26.9126 12.7423 26.4525C12.2985 25.9923 11.7218 25.6826 11.0931 25.5668C10.4644 25.4509 9.81519 25.5347 9.23651 25.8064C9.47534 25.1466 9.48191 24.425 9.25511 23.761C9.02832 23.0969 8.58175 22.5301 7.98919 22.1542C7.39664 21.7783 6.69357 21.6158 5.99617 21.6936C5.29877 21.7714 4.64879 22.0848 4.15363 22.5821L3.52976 23.2059C3.03253 23.7011 2.71912 24.3511 2.64132 25.0485C2.56353 25.7459 2.726 26.4489 3.10189 27.0415C3.47779 27.6341 4.0446 28.0806 4.70867 28.3074C5.37273 28.5342 6.0943 28.5277 6.75413 28.2888C6.4963 28.8464 6.41147 29.4685 6.5106 30.0748C6.60972 30.6811 6.88825 31.2438 7.31024 31.6903C7.73224 32.1368 8.27834 32.4466 8.8781 32.5797C9.47785 32.7128 10.1037 32.6632 10.675 32.4372C10.4538 33.0053 10.4046 33.6259 10.5335 34.2218C10.6624 34.8176 10.9637 35.3624 11.3999 35.7884C11.8361 36.2143 12.3879 36.5025 12.9867 36.6172C13.5854 36.7319 14.2047 36.6679 14.7674 36.4333C14.545 37.0387 14.5359 37.7019 14.7415 38.3132C14.947 38.9245 15.355 39.4473 15.898 39.7954C16.441 40.1434 17.0864 40.2958 17.7277 40.2273C18.369 40.1589 18.9678 39.8736 19.425 39.4188L20.125 38.7241C20.3886 38.4605 20.5977 38.1476 20.7404 37.8031C20.8831 37.4587 20.9565 37.0896 20.9565 36.7168C20.9565 36.344 20.8831 35.9749 20.7404 35.6305C20.5977 35.2861 20.3886 34.9731 20.125 34.7096Z" fill="url(#paint0_linear)"/>
<path d="M31.3381 15.2609C30.3697 15.5846 29.3553 15.7498 28.3342 15.75C26.5575 15.7619 24.8151 15.2599 23.317 14.3045L17.2016 18.1125C16.3408 18.65 15.3132 18.8543 14.3122 18.687C13.3113 18.5197 12.406 17.9923 11.7667 17.2041C11.1275 16.4159 10.7983 15.4213 10.8412 14.4074C10.8841 13.3934 11.2962 12.4301 11.9997 11.6988L18.8519 4.56315C19.0181 4.3969 19.194 4.24465 19.3699 4.0924C18.4273 3.70155 17.417 3.50025 16.3966 3.50003H13.4872L11.9936 2.0064C11.8295 1.84236 11.607 1.75021 11.375 1.75021C11.143 1.75021 10.9205 1.84236 10.7564 2.0064L1.13137 11.6314C0.967334 11.7955 0.875183 12.018 0.875183 12.25C0.875183 12.482 0.967334 12.7046 1.13137 12.8687L2.625 14.3623V17.3907C2.65447 18.5904 2.97871 19.7644 3.56912 20.8093C4.22483 20.3466 4.98573 20.0551 5.78272 19.9612C6.57971 19.8674 7.38753 19.9741 8.13279 20.2717C8.87804 20.5694 9.53713 21.0485 10.0502 21.6656C10.5632 22.2827 10.9139 23.0182 11.0705 23.8053C12.1805 23.9309 13.2121 24.4388 13.9886 25.2418C14.7651 26.0448 15.2381 27.093 15.3265 28.2065C16.2704 28.4304 17.1255 28.932 17.7815 29.6467C18.4375 30.3613 18.8643 31.2562 19.0067 32.2158C19.8129 32.3752 20.5614 32.7485 21.1737 33.2966C21.786 33.8447 22.2396 34.5474 22.487 35.3311C22.7344 36.1147 22.7664 36.9505 22.5798 37.7508C22.3931 38.5511 21.9947 39.2865 21.4261 39.8799C22.0387 40.0461 22.6845 40.0459 23.297 39.8793C23.9094 39.7128 24.4664 39.3858 24.9104 38.9323C25.5549 38.2846 25.932 37.4181 25.9665 36.505C26.4904 36.9189 27.1383 37.1444 27.8059 37.1455C28.4735 37.1465 29.1221 36.923 29.6473 36.5108C30.1725 36.0986 30.5438 35.5218 30.7014 34.873C30.8591 34.2243 30.7939 33.5414 30.5165 32.9342C31.1517 33.1664 31.8391 33.2171 32.5015 33.0806C33.164 32.944 33.7752 32.6256 34.2668 32.161C34.7584 31.6964 35.1108 31.1041 35.2845 30.4504C35.4582 29.7967 35.4463 29.1076 35.2502 28.4603C36.0086 28.5621 36.7797 28.423 37.4547 28.0628C38.1297 27.7025 38.6745 27.1393 39.012 26.4526C39.3496 25.7659 39.4628 24.9906 39.3358 24.2361C39.2087 23.4816 38.8478 22.786 38.304 22.2478L31.3381 15.2609Z" fill="url(#paint1_linear)"/>
<path d="M40.8686 11.6314L31.2436 2.0064C31.0795 1.84236 30.857 1.75021 30.625 1.75021C30.393 1.75021 30.1705 1.84236 30.0064 2.0064L28.5127 3.50003H25.6034C23.5442 3.50072 21.5697 4.31901 20.1136 5.77503L13.2615 12.9124C13.0251 13.1586 12.8437 13.4522 12.7293 13.7737C12.6148 14.0953 12.5699 14.4374 12.5975 14.7776C12.6252 15.1178 12.7247 15.4482 12.8895 15.7471C13.0544 16.046 13.2808 16.3064 13.5538 16.5113C13.943 16.8023 14.4112 16.9688 14.8968 16.9891C15.3824 17.0094 15.8628 16.8825 16.275 16.625L23.415 12.1757C24.7737 13.3696 26.5256 14.0194 28.3342 14C29.5207 14.0046 30.6918 13.7313 31.7537 13.202L39.375 20.8469V14.3623L40.8686 12.8687C41.0327 12.7046 41.1248 12.482 41.1248 12.25C41.1248 12.018 41.0327 11.7955 40.8686 11.6314Z" fill="url(#paint2_linear)"/>
<defs>
<linearGradient id="paint0_linear" x1="11.7894" y1="21.6746" x2="11.7894" y2="40.2433" gradientUnits="userSpaceOnUse">
<stop stop-color="white"/>
<stop offset="1" stop-color="white" stop-opacity="0"/>
</linearGradient>
<linearGradient id="paint1_linear" x1="20.1308" y1="1.75021" x2="20.1308" y2="40.0044" gradientUnits="userSpaceOnUse">
<stop stop-color="white"/>
<stop offset="1" stop-color="white" stop-opacity="0"/>
</linearGradient>
<linearGradient id="paint2_linear" x1="26.8572" y1="1.75021" x2="26.8572" y2="20.8469" gradientUnits="userSpaceOnUse">
<stop stop-color="white"/>
<stop offset="1" stop-color="white" stop-opacity="0"/>
</linearGradient>
</defs>
</svg>
