<svg width="42" height="42" viewBox="0 0 42 42" fill="none" xmlns="http://www.w3.org/2000/svg">
<path d="M26.25 5.25C26.25 3.07519 28.0127 1.3125 30.1875 1.3125H6.5625C4.38769 1.3125 2.625 3.07519 2.625 5.25V7.21875C2.625 7.581 2.919 7.875 3.28125 7.875H25.5938C25.956 7.875 26.25 7.581 26.25 7.21875V5.25Z" fill="url(#paint0_linear)"/>
<path d="M34.7812 26.25V6.23438C34.7812 4.24069 33.1656 2.625 31.1719 2.625C29.1782 2.625 27.5625 4.24069 27.5625 6.23438V8.53125C27.5625 8.8935 27.2685 9.1875 26.9062 9.1875H7.21875V26.25H34.7812Z" fill="url(#paint1_linear)"/>
<path d="M40.0312 27.5625H1.96875C1.24359 27.5625 0.65625 28.1498 0.65625 28.875V39.375C0.65625 40.1002 1.24359 40.6875 1.96875 40.6875H40.0312C40.7564 40.6875 41.3438 40.1002 41.3438 39.375V28.875C41.3438 28.1498 40.7564 27.5625 40.0312 27.5625ZM9.1875 36.0938C8.10009 36.0938 7.21875 35.2124 7.21875 34.125C7.21875 33.0376 8.10009 32.1562 9.1875 32.1562C10.2749 32.1562 11.1562 33.0376 11.1562 34.125C11.1562 35.2124 10.2749 36.0938 9.1875 36.0938ZM34.125 34.7812H18.375C18.0121 34.7812 17.7188 34.4879 17.7188 34.125C17.7188 33.7621 18.0121 33.4688 18.375 33.4688H34.125C34.4879 33.4688 34.7812 33.7621 34.7812 34.125C34.7812 34.4879 34.4879 34.7812 34.125 34.7812Z" fill="url(#paint2_linear)"/>
<defs>
<linearGradient id="paint0_linear" x1="16.4062" y1="1.3125" x2="16.4062" y2="7.875" gradientUnits="userSpaceOnUse">
<stop stop-color="white"/>
<stop offset="1" stop-color="white" stop-opacity="0"/>
</linearGradient>
<linearGradient id="paint1_linear" x1="21" y1="2.625" x2="21" y2="26.25" gradientUnits="userSpaceOnUse">
<stop stop-color="white"/>
<stop offset="1" stop-color="white" stop-opacity="0"/>
</linearGradient>
<linearGradient id="paint2_linear" x1="21" y1="27.5625" x2="21" y2="40.6875" gradientUnits="userSpaceOnUse">
<stop stop-color="white"/>
<stop offset="1" stop-color="white" stop-opacity="0"/>
</linearGradient>
</defs>
</svg>
