<svg width="42" height="42" viewBox="0 0 42 42" fill="none" xmlns="http://www.w3.org/2000/svg">
<path d="M21 0.65625C19.3127 0.65625 17.6633 1.1566 16.2603 2.09402C14.8573 3.03145 13.7639 4.36385 13.1182 5.92273C12.4724 7.48161 12.3035 9.19696 12.6327 10.8519C12.9619 12.5068 13.7744 14.0269 14.9675 15.22C16.1606 16.4131 17.6807 17.2256 19.3356 17.5548C20.9905 17.884 22.7059 17.7151 24.2648 17.0693C25.8237 16.4236 27.1561 15.3302 28.0935 13.9272C29.0309 12.5243 29.5313 10.8748 29.5313 9.1875C29.5286 6.92567 28.629 4.75723 27.0296 3.15787C25.4303 1.55852 23.2618 0.658855 21 0.65625ZM24.7452 9.65147L21.464 12.9327C21.3409 13.0557 21.174 13.1249 21 13.1249C20.826 13.1249 20.6591 13.0557 20.536 12.9327L17.2548 9.65147C17.1318 9.5284 17.0626 9.36151 17.0626 9.1875C17.0626 9.01349 17.1318 8.8466 17.2548 8.72353L20.536 5.44228C20.6591 5.31925 20.826 5.25014 21 5.25014C21.174 5.25014 21.3409 5.31925 21.464 5.44228L24.7452 8.72353C24.8682 8.8466 24.9374 9.01349 24.9374 9.1875C24.9374 9.36151 24.8682 9.5284 24.7452 9.65147Z" fill="url(#paint0_linear)"/>
<path d="M12.7096 32.1562L13.7865 40.7689C13.8063 40.9276 13.8834 41.0736 14.0033 41.1794C14.1232 41.2853 14.2776 41.3437 14.4375 41.3438H27.5625C27.7224 41.3437 27.8768 41.2853 27.9967 41.1794C28.1166 41.0736 28.1937 40.9276 28.2135 40.7689L29.2904 32.1562H12.7096Z" fill="url(#paint1_linear)"/>
<path d="M38.8631 21.8202C37.6014 20.7058 36.1034 19.892 34.4817 19.44C32.8601 18.9881 31.1571 18.9097 29.5009 19.2108C27.8446 19.5119 26.2782 20.1847 24.9194 21.1785C23.5607 22.1724 22.445 23.4614 21.6562 24.9486V18.9984C21.4384 19.0121 21.2218 19.0312 21 19.0312C20.7782 19.0312 20.5616 19.0121 20.3437 18.9984V24.9486C19.555 23.4614 18.4393 22.1724 17.0805 21.1785C15.7218 20.1847 14.1554 19.5119 12.4991 19.2108C10.8428 18.9097 9.13982 18.9881 7.51821 19.44C5.8966 19.892 4.39859 20.7058 3.13685 21.8202C3.06703 21.8818 3.0111 21.9575 2.97279 22.0424C2.93448 22.1273 2.91467 22.2193 2.91467 22.3124C2.91467 22.4055 2.93448 22.4976 2.97279 22.5824C3.0111 22.6673 3.06703 22.743 3.13685 22.8046C5.09234 24.5344 7.5945 25.5205 10.2044 25.5897C12.8143 25.6589 15.3652 24.807 17.4096 23.1833C19.1218 24.8722 20.154 27.1312 20.3103 29.5312H13.125C13.0319 29.5312 12.94 29.551 12.8552 29.5893C12.7704 29.6275 12.6947 29.6834 12.6331 29.7532C12.5716 29.8229 12.5255 29.905 12.4981 29.9939C12.4707 30.0828 12.4624 30.1765 12.474 30.2688L12.5455 30.8437H29.4545L29.526 30.2688C29.5375 30.1765 29.5293 30.0828 29.5019 29.9939C29.4744 29.905 29.4284 29.8229 29.3668 29.7532C29.3053 29.6834 29.2296 29.6275 29.1448 29.5893C29.06 29.551 28.968 29.5312 28.875 29.5312H21.6897C21.846 27.1312 22.8782 24.8722 24.5903 23.1833C26.6348 24.807 29.1857 25.6589 31.7956 25.5897C34.4055 25.5205 36.9076 24.5344 38.8631 22.8046C38.9329 22.743 38.9889 22.6673 39.0272 22.5824C39.0655 22.4976 39.0853 22.4055 39.0853 22.3124C39.0853 22.2193 39.0655 22.1273 39.0272 22.0424C38.9889 21.9575 38.9329 21.8818 38.8631 21.8202Z" fill="url(#paint2_linear)"/>
<defs>
<linearGradient id="paint0_linear" x1="21" y1="0.65625" x2="21" y2="17.7188" gradientUnits="userSpaceOnUse">
<stop stop-color="white"/>
<stop offset="1" stop-color="white" stop-opacity="0"/>
</linearGradient>
<linearGradient id="paint1_linear" x1="21" y1="32.1562" x2="21" y2="41.3438" gradientUnits="userSpaceOnUse">
<stop stop-color="white"/>
<stop offset="1" stop-color="white" stop-opacity="0"/>
</linearGradient>
<linearGradient id="paint2_linear" x1="21" y1="18.9984" x2="21" y2="30.8437" gradientUnits="userSpaceOnUse">
<stop stop-color="white"/>
<stop offset="1" stop-color="white" stop-opacity="0"/>
</linearGradient>
</defs>
</svg>
