<svg width="42" height="42" viewBox="0 0 42 42" fill="none" xmlns="http://www.w3.org/2000/svg">
<path d="M32.8125 9.84375C31.9039 9.84375 31.0158 9.57433 30.2604 9.06957C29.5049 8.5648 28.9161 7.84735 28.5684 7.00795C28.2207 6.16856 28.1298 5.24491 28.307 4.35381C28.4843 3.46271 28.9218 2.64418 29.5642 2.00173C30.2067 1.35928 31.0252 0.921771 31.9163 0.74452C32.8074 0.567269 33.7311 0.65824 34.5705 1.00593C35.4099 1.35362 36.1273 1.94241 36.6321 2.69785C37.1368 3.45329 37.4062 4.34144 37.4062 5.25C37.4047 6.46786 36.9202 7.63539 36.059 8.49655C35.1979 9.3577 34.0304 9.84219 32.8125 9.84375Z" fill="url(#paint0_linear)"/>
<path d="M9.1875 9.84375C8.27894 9.84375 7.39079 9.57433 6.63535 9.06957C5.87991 8.5648 5.29112 7.84735 4.94343 7.00795C4.59574 6.16856 4.50477 5.24491 4.68202 4.35381C4.85927 3.46271 5.29678 2.64418 5.93923 2.00173C6.58168 1.35928 7.40021 0.921771 8.29131 0.74452C9.18241 0.567269 10.1061 0.65824 10.9455 1.00593C11.7849 1.35362 12.5023 1.94241 13.0071 2.69785C13.5118 3.45329 13.7813 4.34144 13.7813 5.25C13.7797 6.46786 13.2952 7.63539 12.434 8.49655C11.5729 9.3577 10.4054 9.84219 9.1875 9.84375Z" fill="url(#paint1_linear)"/>
<path d="M39.7313 14.2558C37.6276 13.0491 35.2375 12.4318 32.8125 12.4688C30.3825 12.4226 27.9858 13.0392 25.8799 14.2525C25.3933 14.5451 24.9905 14.9583 24.7104 15.4522C24.4303 15.9461 24.2825 16.504 24.2812 17.0718V20.1607C27.2044 21.0137 29.6869 22.9593 31.2139 25.5938H40.6875C40.8615 25.5938 41.0285 25.5247 41.1515 25.4016C41.2746 25.2785 41.3438 25.1116 41.3438 24.9376V17.0849C41.3424 16.5142 41.1932 15.9536 40.9106 15.4577C40.628 14.9619 40.2217 14.5478 39.7313 14.2558Z" fill="url(#paint2_linear)"/>
<path d="M17.7188 20.1607V17.0717C17.7179 16.5036 17.5704 15.9453 17.2904 15.4509C17.0105 14.9565 16.6076 14.5428 16.1208 14.2498C14.0143 13.0375 11.6175 12.4218 9.1875 12.4688C6.76223 12.4317 4.37182 13.0492 2.268 14.2564C1.77777 14.5483 1.3716 14.9623 1.08911 15.4581C0.806631 15.9538 0.657492 16.5143 0.65625 17.0848V24.9375C0.65625 25.1116 0.72539 25.2785 0.848461 25.4016C0.971532 25.5246 1.13845 25.5938 1.3125 25.5938H10.7861C12.3131 22.9592 14.7956 21.0137 17.7188 20.1607Z" fill="url(#paint3_linear)"/>
<path d="M21 21.6562C19.0531 21.6562 17.1499 22.2336 15.5311 23.3152C13.9123 24.3969 12.6506 25.9343 11.9056 27.733C11.1605 29.5317 10.9656 31.5109 11.3454 33.4204C11.7252 35.3299 12.6627 37.0839 14.0394 38.4606C15.4161 39.8373 17.1701 40.7748 19.0796 41.1546C20.9891 41.5344 22.9683 41.3395 24.767 40.5944C26.5658 39.8494 28.1031 38.5877 29.1848 36.9689C30.2664 35.3501 30.8438 33.4469 30.8438 31.5C30.8408 28.8902 29.8027 26.3881 27.9573 24.5427C26.1119 22.6973 23.6098 21.6592 21 21.6562ZM24.7452 31.964L21.464 35.2452C21.3409 35.3682 21.174 35.4374 21 35.4374C20.826 35.4374 20.6591 35.3682 20.536 35.2452L17.2548 31.964C17.1318 31.8409 17.0626 31.674 17.0626 31.5C17.0626 31.326 17.1318 31.1591 17.2548 31.036L20.536 27.7548C20.6591 27.6318 20.826 27.5626 21 27.5626C21.174 27.5626 21.3409 27.6318 21.464 27.7548L24.7452 31.036C24.8682 31.1591 24.9374 31.326 24.9374 31.5C24.9374 31.674 24.8682 31.8409 24.7452 31.964Z" fill="url(#paint4_linear)"/>
<defs>
<linearGradient id="paint0_linear" x1="32.8125" y1="0.65625" x2="32.8125" y2="9.84375" gradientUnits="userSpaceOnUse">
<stop stop-color="white"/>
<stop offset="1" stop-color="white" stop-opacity="0"/>
</linearGradient>
<linearGradient id="paint1_linear" x1="9.1875" y1="0.65625" x2="9.1875" y2="9.84375" gradientUnits="userSpaceOnUse">
<stop stop-color="white"/>
<stop offset="1" stop-color="white" stop-opacity="0"/>
</linearGradient>
<linearGradient id="paint2_linear" x1="32.8125" y1="12.4664" x2="32.8125" y2="25.5938" gradientUnits="userSpaceOnUse">
<stop stop-color="white"/>
<stop offset="1" stop-color="white" stop-opacity="0"/>
</linearGradient>
<linearGradient id="paint3_linear" x1="9.1875" y1="12.4663" x2="9.1875" y2="25.5938" gradientUnits="userSpaceOnUse">
<stop stop-color="white"/>
<stop offset="1" stop-color="white" stop-opacity="0"/>
</linearGradient>
<linearGradient id="paint4_linear" x1="21" y1="21.6562" x2="21" y2="41.3438" gradientUnits="userSpaceOnUse">
<stop stop-color="white"/>
<stop offset="1" stop-color="white" stop-opacity="0"/>
</linearGradient>
</defs>
</svg>
