<svg xmlns="http://www.w3.org/2000/svg" width="826.139" height="236" viewBox="0 0 826.139 236">
  <g id="Group_21685" data-name="Group 21685" transform="translate(13995.341 28.498)">
    <g id="Group_21684" transform="translate(-13995 -28)">
      <g id="Ellipse_2143" transform="translate(0)">
        <g id="Group_21683" data-name="Group 21683" transform="translate(0 0)">
          <ellipse id="Ellipse_2142" data-name="Ellipse 2142" cx="117.5" cy="118" rx="117.5" ry="118" transform="translate(-0.341 -0.497)" fill="none"/>
        </g>
        <g id="Group_21684-2" data-name="Group 21684" transform="translate(0.219 0.219)">
          <path id="Path_35644" data-name="Path 35644" d="M117.284,234.568A117.284,117.284,0,1,1,234.568,117.284,117.416,117.416,0,0,1,117.284,234.568Zm0-227.96A110.676,110.676,0,1,0,227.96,117.284,110.789,110.789,0,0,0,117.284,6.608Z" fill="#efca2d"/>
        </g>
      </g>
      <g id="Ellipse_2142-2" data-name="Ellipse_2142" transform="translate(22.17 22.17)">
        <circle id="Ellipse_2143-2" data-name="Ellipse 2143" cx="95" cy="95" r="95" transform="translate(0.489 0.332)" fill="#efca2d"/>
      </g>
      <g id="Group_21683-2" data-name="Group_21683" transform="translate(62.244 56.423)">
        <g id="vector-initial-letter-b-business-wing-logo-icon-corporate-technology-concept-blue-color-clipart-vector_csp76325555" transform="translate(0 5.748)">
          <g id="_a5e8f8ff">
            <g id="Path_35659" transform="translate(0.464)">
              <path id="Path_35645" data-name="Path 35645" d="M14.387,44.105C1.006,34.029-.645,15.363,1.172,0,12.817,19.823,27.189,38.324,45.525,52.282c10.159,8.342,22.8,19.079,18.831,34.029-4.295-7.846-9.911-15.2-17.923-19.41A164.793,164.793,0,0,1,14.387,44.105Z" transform="translate(-0.562)" fill="#fffef9"/>
            </g>
            <g id="Path_35660" transform="translate(5.369 9.627)">
              <path id="Path_35646" data-name="Path 35646" d="M25.827,11.692c14.95,0,29.817-.083,44.684,0,9.168,0,19.079,1.487,26.1,7.929,7.186,7.516,7.764,20.4.991,28.33-4.46,5.369-11.481,7.516-17.923,9.581,7.929,2.065,16.519,3.552,22.631,9.5,8.838,8.755,7.516,24.531-1.322,32.79-9.581,9.416-23.622,11.4-36.507,11.728-13.463.083-26.843.083-40.306-.083-.165-7.516,9.251-4.79,13.545-8.672.248-3.8.578-7.516.909-11.315-8.755-.991-18.584-1.487-25.109-8.177-4.46-3.634-5.7-9.416-7.021-14.784,6.195,3.717,12.224,8.012,19.162,10.324,11.15,4.295,24.365,5.534,32.377,15.445-1.652,3.552-1.239,8.425,2.808,10.159,9.911,4.047,23.126-1.569,26.182-12.141,2.726-8.59,1.652-19.905-6.36-25.356-6.195-4.625-14.124-5.038-21.557-5.121-6.608-6.36-13.793-12.059-20.731-18.006-.165-7.351.743-14.784-.826-22.053-1.569-4.873-7.516-4.047-11.563-5.121-.083-1.652-.165-3.3-.165-4.956m30.725,8.92c-1.239,11.728-.33,23.622-.33,35.35,7.268-.413,15.61.5,21.475-4.708,6.442-5.451,6.608-15.2,4.212-22.713C79.018,18.548,64.4,13.757,56.552,20.612Z" transform="translate(-6.5 -11.656)" fill="#fffef9"/>
            </g>
            <g id="Path_35661" transform="translate(0 36.094)">
              <path id="Path_35647" data-name="Path 35647" d="M0,43.7C13.132,62.119,33.946,71.947,52.2,84.171c6.773,4.378,9.581,12.554,10.9,20.236C57.32,97.8,51.621,90.531,43.2,87.31,30.725,82.354,16.684,79.3,7.268,68.974.743,62.284.5,52.455,0,43.7Z" transform="translate(0 -43.7)" fill="#fffef9"/>
            </g>
          </g>
        </g>
        <g id="Rectangle_5167" transform="translate(49.456)">
          <rect id="Rectangle_5167-2" data-name="Rectangle 5167" width="9.085" height="18.997" fill="#fff"/>
        </g>
        <g id="Rectangle_5170" transform="translate(49.456 111.502)">
          <rect id="Rectangle_5168" data-name="Rectangle 5168" width="9.085" height="18.997" transform="translate(0 0)" fill="#fff"/>
        </g>
        <g id="Rectangle_5168-2" data-name="Rectangle_5168" transform="translate(65.975)">
          <rect id="Rectangle_5169" data-name="Rectangle 5169" width="8.259" height="18.997" fill="#fff"/>
        </g>
        <g id="Rectangle_5169-2" data-name="Rectangle_5169" transform="translate(65.975 111.502)">
          <rect id="Rectangle_5170-2" data-name="Rectangle 5170" width="8.259" height="18.997" transform="translate(0 0)" fill="#fff"/>
        </g>
      </g>
    </g>
    <g id="Group_21567" data-name="Group 21567" transform="translate(-13723.368 23.933)">
      <path id="Path_35650" data-name="Path 35650" d="M193.917,98.7q0,22.555-13.021,37.305-13.527,15.351-35.511,15.351a37.99,37.99,0,0,1-15.558-3.259q-8.455-3.774-11.923-10.462h-.338v10.377H90V18h28.748V58.221q10.233-11.063,27.9-11.063a46.914,46.914,0,0,1,20.208,4.8A43.89,43.89,0,0,1,187.323,71Q193.915,82.92,193.917,98.7Zm-28.749.514A24.525,24.525,0,0,0,158.405,81.8a22.072,22.072,0,0,0-16.826-7.375A22.908,22.908,0,0,0,124.5,81.547a24.431,24.431,0,0,0-6.764,17.5,25.7,25.7,0,0,0,6.426,17.752,21.78,21.78,0,0,0,16.909,7.29,22.969,22.969,0,0,0,17.25-7.2A24.67,24.67,0,0,0,165.168,99.214Z" transform="translate(-90 -18)" fill="#fffef8"/>
      <path id="Path_35651" data-name="Path 35651" d="M130.516,40.212V18h28.748V40.212Zm0,107.8V50.5h28.748v97.508Z" transform="translate(-10.449 -18)" fill="#fffef8"/>
      <path id="Path_35652" data-name="Path 35652" d="M187.337,72.629v75.382H158.589V72.629H144.382V50.5h14.207V18h28.749V50.5H201.2V72.629Z" transform="translate(16.777 -18)" fill="#fffef8"/>
      <path id="Path_35653" data-name="Path 35653" d="M269.788,79.781q0,22.3-14.879,37.048-14.8,14.751-36.951,14.751t-36.865-14.751q-14.883-14.75-14.883-37.048,0-22.383,14.883-37.134Q195.805,27.9,217.957,27.9t36.951,14.751Q269.791,57.4,269.788,79.781Zm-28.748,0a24.635,24.635,0,0,0-6.508-17.238,22.216,22.216,0,0,0-33.063,0,24.637,24.637,0,0,0-6.511,17.238,24.835,24.835,0,0,0,6.511,17.238,22.39,22.39,0,0,0,33.063,0A24.833,24.833,0,0,0,241.039,79.781Z" transform="translate(59.633 1.433)" fill="#fffef8"/>
      <path id="Path_35654" data-name="Path 35654" d="M266.926,128.692V75.436q0-9.519-2.706-14.15-3.467-6-12.346-6-9.384,0-13.273,5.831-3.214,4.8-3.212,14.579v53H206.64V31.184h26.8V41.561h.424q8.286-13.722,26.126-13.722,14.629,0,24.606,8.49a29.32,29.32,0,0,1,8.964,14.322,59.934,59.934,0,0,1,2.113,17.066v60.975Z" transform="translate(139.018 1.319)" fill="#fffef8"/>
      <path id="Path_35655" data-name="Path 35655" d="M345.627,79.781q0,22.3-14.882,37.048Q315.951,131.58,293.8,131.58t-36.865-14.751q-14.883-14.75-14.883-37.048,0-22.383,14.883-37.134Q271.64,27.9,293.8,27.9t36.948,14.751Q345.627,57.4,345.627,79.781Zm-28.748,0a24.624,24.624,0,0,0-6.511-17.238,22.212,22.212,0,0,0-33.06,0A24.624,24.624,0,0,0,270.8,79.781a24.822,24.822,0,0,0,6.511,17.238,22.387,22.387,0,0,0,33.06,0A24.822,24.822,0,0,0,316.878,79.781Z" transform="translate(208.54 1.433)" fill="#fffef8"/>
    </g>
  </g>
</svg>
